<?xml version="1.0" encoding="UTF-8"?><svg xmlns="http://www.w3.org/2000/svg" viewBox="0 0 927.57 927.58"><defs><style>.d{fill:#d0111f;}.e{fill:#235f93;}.f{fill:#44316e;}.g{fill:#302b3f;}.g,.h,.i,.j,.k,.l,.m,.n,.o,.p,.q{fill-rule:evenodd;}.h{fill:#5e459b;}.i{fill:#129994;}.j{fill:#0a645e;}.k{fill:#cdd312;}.l{fill:#2f83cb;}.m{fill:#8f950d;}.n{fill:#c26c05;}.o{fill:#ee3244;}.p{fill:#fff;}.q{fill:#f68e16;}</style></defs><g id="a"/><g id="b"><g id="c"><path class="g" d="M185.45,0H742.12c101.98,0,185.45,83.46,185.45,185.45V742.16c0,101.98-83.46,185.42-185.45,185.42H185.45C83.46,927.58,0,844.14,0,742.16V185.45C0,83.46,83.46,0,185.45,0"/><path class="o" d="M523.65,555.07h59.89v122.36c0,16.48-13.49,29.95-29.95,29.95s-29.95-13.47-29.95-29.95v-122.36"/><path class="q" d="M583.54,722.46c0,16.48,13.46,29.95,29.91,29.95s29.92-13.47,29.92-29.95v-213.99c0,25.64-20.97,46.61-46.59,46.61h-13.25v167.38"/><path class="h" d="M523.65,624.16c0,16.45-13.47,29.92-29.91,29.92s-29.95-13.46-29.95-29.92v-69.08h59.86v69.08"/><path class="l" d="M463.79,624.16v57.15c0,16.45-13.47,29.95-29.92,29.95s-29.95-13.5-29.95-29.95v-126.23h59.87v69.08Z"/><path class="i" d="M403.92,721.52c0,16.45-13.46,29.92-29.94,29.92s-29.92-13.46-29.92-29.92v-178.27c8.25,7.37,19.08,11.83,30.94,11.83h28.92v166.44"/><path class="k" d="M284.2,509.51c.21,6.91,5.88,12.45,12.84,12.45h33.17c2.48,8.58,7.34,16.16,13.84,21.94v225.52c0,16.48-13.47,29.94-29.95,29.94s-29.91-13.46-29.91-29.94V509.51"/><path class="p" d="M596.79,555.72h-221.79c-21.18,0-39.19-14.3-44.78-33.76h-33.17c-7.09,0-12.84-5.75-12.84-12.85v-75.53c0-5.08,2.95-9.49,7.2-11.56l194.44-112.25v-22.66c-5.64-4.06-9.35-10.67-9.35-18.09v-118.54c0-12.23,10-22.23,22.2-22.23s22.2,10,22.2,22.23v118.54c0,7.42-3.68,14.04-9.35,18.09v30.05h0c-.03,4.41-2.31,8.71-6.4,11.07l-195.26,112.73v55.29h20.32c5.59-19.43,23.6-33.76,44.78-33.76h221.79c25.62,0,46.59,20.96,46.59,46.61s-20.97,46.61-46.59,46.61"/><rect class="f" x="463.79" y="555.07" width="59.86" height="20.08"/><path class="j" d="M403.92,555.07v20.08h-28.92c-11.05,0-21.61-2.74-30.94-7.66v-24.25c8.25,7.37,19.08,11.83,30.94,11.83h28.92Z"/><rect class="e" x="403.92" y="555.07" width="59.87" height="20.08"/><rect class="d" x="523.65" y="555.07" width="59.89" height="20.08"/><path class="n" d="M583.54,575.16v-20.08h13.25c25.62,0,46.59-20.96,46.59-46.61v47.61c-12.02,11.77-28.5,19.09-46.59,19.09h-13.25Z"/><path class="m" d="M284.2,539.43c3.92,1.67,8.28,2.61,12.84,2.61h20c6.38,11.16,15.8,20.19,27.02,26.07v-24.22c-6.51-5.78-11.37-13.36-13.84-21.94h-33.17c-6.96,0-12.63-5.54-12.84-12.45h0v29.92Z"/></g></g></svg>